<?xml version="1.0" encoding="iso-8859-1"?>
<!-- Generator: Adobe Illustrator 19.0.0, SVG Export Plug-In . SVG Version: 6.00 Build 0)  -->
<svg version="1.1" id="Capa_1" xmlns="http://www.w3.org/2000/svg" xmlns:xlink="http://www.w3.org/1999/xlink" x="0px" y="0px"
	 viewBox="0 0 60 60" style="enable-background:new 0 0 2 60;" xml:space="preserve">
<g>
	<g>
		<path d="M17.5,15c0.256,0,0.512-0.098,0.707-0.293l4-4c0.391-0.391,0.391-1.023,0-1.414s-1.023-0.391-1.414,0l-4,4
			c-0.391,0.391-0.391,1.023,0,1.414C16.989,14.902,17.244,15,17.5,15z"/>
		<path d="M17.5,20c0.256,0,0.512-0.098,0.707-0.293l2-2c0.391-0.391,0.391-1.023,0-1.414s-1.023-0.391-1.414,0l-2,2
			c-0.391,0.391-0.391,1.023,0,1.414C16.989,19.902,17.244,20,17.5,20z"/>
		<path d="M20.791,14.29c-0.18,0.189-0.29,0.45-0.29,0.71s0.11,0.52,0.29,0.71C20.98,15.89,21.24,16,21.5,16s0.52-0.11,0.71-0.29
			c0.18-0.19,0.29-0.45,0.29-0.71c0-0.271-0.11-0.521-0.29-0.71C21.84,13.92,21.17,13.92,20.791,14.29z"/>
		<path d="M22.793,13.707C22.989,13.902,23.244,14,23.5,14s0.512-0.098,0.707-0.293l3-3c0.391-0.391,0.391-1.023,0-1.414
			s-1.023-0.391-1.414,0l-3,3C22.403,12.684,22.403,13.316,22.793,13.707z"/>
		<path d="M25.793,14.293l-9,9c-0.391,0.391-0.391,1.023,0,1.414C16.989,24.902,17.244,25,17.5,25s0.512-0.098,0.707-0.293l9-9
			c0.391-0.391,0.391-1.023,0-1.414S26.184,13.902,25.793,14.293z"/>
		<path d="M27.791,12.29c-0.18,0.189-0.29,0.439-0.29,0.71c0,0.26,0.11,0.52,0.29,0.71C27.98,13.89,28.24,14,28.5,14
			s0.52-0.11,0.71-0.29c0.18-0.19,0.29-0.45,0.29-0.71c0-0.271-0.11-0.521-0.29-0.7C28.84,11.92,28.16,11.92,27.791,12.29z"/>
		<path d="M30.793,9.293l-1,1c-0.391,0.391-0.391,1.023,0,1.414C29.989,11.902,30.244,12,30.5,12s0.512-0.098,0.707-0.293l1-1
			c0.391-0.391,0.391-1.023,0-1.414S31.184,8.902,30.793,9.293z"/>
		<path d="M43.54,0H17.462C15.278,0,13.5,1.777,13.5,3.962V6v3c-0.552,0-1,0.447-1,1v1c0,0.553,0.448,1,1,1v1c-0.552,0-1,0.447-1,1
			v1c0,0.553,0.448,1,1,1v1c-0.552,0-1,0.447-1,1v1c0,0.553,0.448,1,1,1v32v4.038c0,2.185,1.777,3.962,3.961,3.962h26.077
			c2.185,0,3.961-1.777,3.961-3.962V52V6V3.962C47.5,1.777,45.723,0,43.54,0z M30.5,57c-1.103,0-2-0.897-2-2s0.897-2,2-2
			s2,0.897,2,2S31.604,57,30.5,57z M15.5,8h30v42h-30V8z M15.5,56.038V52h12.382c-0.84,0.734-1.382,1.799-1.382,3
			s0.542,2.266,1.382,3H17.462C16.38,58,15.5,57.12,15.5,56.038z M45.5,56.038C45.5,57.12,44.62,58,43.54,58H33.118
			c0.84-0.734,1.382-1.799,1.382-3s-0.542-2.266-1.382-3H45.5V56.038z M15.5,6V3.962C15.5,2.88,16.38,2,17.462,2h26.077
			C44.62,2,45.5,2.88,45.5,3.962V6H15.5z"/>
		<path d="M34.5,3h-5c-0.552,0-1,0.447-1,1s0.448,1,1,1h5c0.552,0,1-0.447,1-1S35.052,3,34.5,3z"/>
		<path d="M26.5,3h-1c-0.552,0-1,0.447-1,1s0.448,1,1,1h1c0.552,0,1-0.447,1-1S27.052,3,26.5,3z"/>
	</g>
</g>
<g>
</g>
<g>
</g>
<g>
</g>
<g>
</g>
<g>
</g>
<g>
</g>
<g>
</g>
<g>
</g>
<g>
</g>
<g>
</g>
<g>
</g>
<g>
</g>
<g>
</g>
<g>
</g>
<g>
</g>
</svg>
