<?xml version="1.0" encoding="iso-8859-1"?>
<!-- Generator: Adobe Illustrator 19.0.0, SVG Export Plug-In . SVG Version: 6.00 Build 0)  -->
<svg version="1.1" id="Layer_1" xmlns="http://www.w3.org/2000/svg" xmlns:xlink="http://www.w3.org/1999/xlink" x="0px" y="0px"
	 viewBox="0 0 512 512" style="enable-background:new 0 0 512 512;" xml:space="preserve">
<g>
	<g>
		<g>
			<path d="M243.198,25.603h-42.667c-4.71,0-8.533,3.823-8.533,8.533c0,4.71,3.823,8.533,8.533,8.533h42.667
				c4.71,0,8.533-3.823,8.533-8.533C251.732,29.425,247.909,25.603,243.198,25.603z"/>
			<path d="M174.932,25.603h-8.533c-4.71,0-8.533,3.823-8.533,8.533c0,4.71,3.823,8.533,8.533,8.533h8.533
				c4.71,0,8.533-3.823,8.533-8.533C183.465,29.425,179.642,25.603,174.932,25.603z"/>
			<path d="M373.891,145.073c-9.668,0-17.775,4.617-21.137,12.049c-1.382,3.055-4.42,5.018-7.774,5.018
				c-3.345,0-6.383-1.963-7.765-5.018c-3.524-7.774-10.598-12.049-19.908-12.049c-13.534,0-21.692,11.281-22.75,22.417
				c-0.034,0.316-0.077,0.623-0.145,0.922h0.009c0.009,0-0.299,2.748,0.922,7.578c2.031,7.987,6.767,15.309,13.713,21.171
				l36.548,30.643l36.565-30.652c6.921-5.854,11.665-13.175,13.687-21.163c1.271-5.009,0.888-7.782,0.888-7.808
				C395.582,156.355,387.424,145.073,373.891,145.073z"/>
			<path d="M422.135,93.867h-68.002V59.733V33.809C354.133,15.164,338.97,0,320.324,0H97.801C79.164,0,64,15.164,64,33.809v25.924
				V76.8c-4.71,0-8.533,3.823-8.533,8.533v8.533c0,4.71,3.823,8.533,8.533,8.533v8.533c-4.71,0-8.533,3.823-8.533,8.533V128
				c0,4.719,3.823,8.533,8.533,8.533V435.2v43c0,18.637,15.164,33.8,33.801,33.8h222.524c18.645,0,33.809-15.164,33.809-33.8v-43
				V281.6h68.002c18.97,0,34.398-15.428,34.398-34.398V128.265C456.533,109.295,441.105,93.867,422.135,93.867z M81.067,33.809
				c0-9.233,7.509-16.742,16.734-16.742h222.524c9.233,0,16.742,7.509,16.742,16.742V51.2h-256V33.809z M186.726,494.933H97.801
				c-9.225,0-16.734-7.509-16.734-16.734v-34.466h105.66c-7.168,6.263-11.793,15.36-11.793,25.6S179.558,488.67,186.726,494.933z
				 M209.067,486.4c-9.412,0-17.067-7.654-17.067-17.067c0-9.412,7.654-17.067,17.067-17.067c9.412,0,17.067,7.654,17.067,17.067
				C226.133,478.746,218.479,486.4,209.067,486.4z M337.067,478.2c0,9.224-7.509,16.734-16.742,16.734h-88.917
				c7.159-6.263,11.793-15.36,11.793-25.6s-4.634-19.337-11.793-25.6h105.66V478.2z M337.067,426.667h-256v-358.4h256v25.6h-68.002
				c-18.97,0-34.398,15.428-34.398,34.398v118.938c0,16.93,12.288,31.036,28.407,33.877l15.13,37.828
				c1.297,3.234,4.437,5.359,7.927,5.359c3.482,0,6.622-2.125,7.919-5.359l14.925-37.308h28.092V426.667z M412.399,180.181
				c-2.901,11.46-9.557,21.845-19.243,30.029l-42.078,35.268c-1.587,1.323-3.533,1.988-5.478,1.988c-1.954,0-3.9-0.657-5.487-1.997
				l-42.044-35.243c-9.711-8.201-16.358-18.586-19.268-30.046c-1.937-7.646-1.493-12.757-1.203-14.618
				C279.782,144.128,296.806,128,317.303,128c11.025,0,20.762,3.951,27.793,10.965c7.262-6.946,17.459-10.957,28.791-10.957
				c20.506,0,37.521,16.119,39.714,37.555C413.892,167.424,414.345,172.535,412.399,180.181z"/>
		</g>
	</g>
</g>
<g>
</g>
<g>
</g>
<g>
</g>
<g>
</g>
<g>
</g>
<g>
</g>
<g>
</g>
<g>
</g>
<g>
</g>
<g>
</g>
<g>
</g>
<g>
</g>
<g>
</g>
<g>
</g>
<g>
</g>
</svg>
